<svg xmlns="http://www.w3.org/2000/svg" width="94.737" height="98.18"><defs><style>.prefix__cls-1{fill:none;stroke:#011e41;stroke-miterlimit:10;stroke-width:4px}</style></defs><g id="prefix__Layer_1" transform="translate(2.012 2.18)"><g id="prefix__Group_39" data-name="Group 39"><g id="prefix__Group_38" data-name="Group 38"><path id="prefix__Path_17" d="M437.682 403.433l29.729 21.314a4.9 4.9 0 11-5.331 8.226l-25.291-16.468a25.485 25.485 0 01-2.208 4.145l27.119 28.22a4.9 4.9 0 01-6.93 6.93l-27.087-26.29c-.56.56-2.951 2.6-3.883 3.3l17.527 25.336a4.9 4.9 0 01-8.057 5.578L414.788 437.9a32.433 32.433 0 01-4.348 1.535l7.66 22.365a4.183 4.183 0 01-7.817 2.979l-29.427-55.591a16.532 16.532 0 012.92-19.425l16.271-16.271 60.722 12.768a9.548 9.548 0 01-9.546 9.648h-23.842" class="prefix__cls-1" data-name="Path 17" transform="translate(-378.936 -373.49)"/></g><path id="prefix__Path_18" fill="#f5333f" d="M454.137 440.374a10.812 10.812 0 00-3.6 6.857 10.846 10.846 0 00-8.217 18.02c7.989 9.062 30.013 6.7 30.013 6.7s5.1-21.554-2.889-30.616a10.847 10.847 0 00-15.307-.961z" data-name="Path 18" transform="translate(-422.526 -419.591)"/><path id="prefix__Path_19" d="M433.6 420.834a10.812 10.812 0 00-3.6 6.857 10.846 10.846 0 00-8.217 18.02c7.989 9.062 30.013 6.7 30.013 6.7s5.1-21.554-2.889-30.616a10.847 10.847 0 00-15.307-.961z" class="prefix__cls-1" data-name="Path 19" transform="translate(-407.77 -405.554)"/></g></g></svg>