<svg xmlns="http://www.w3.org/2000/svg" width="120.305" height="120.308"><defs><style>.cls-1{fill:#f5333f}</style></defs><g id="go-logo-2020" transform="translate(-.897 -5.102)"><g id="g82" transform="translate(.897 5.102)"><path id="path72" class="cls-1" d="M175.583 62.621a6.892 6.892 0 10-6.892 6.9 6.9 6.9 0 006.892-6.9" transform="translate(-108.102 -37.615)"/><path id="path74" class="cls-1" d="M105.445 242.94a6.892 6.892 0 106.892 6.9 6.9 6.9 0 00-6.892-6.9" transform="translate(-67.309 -158.357)"/><path id="path76" class="cls-1" d="M164.1 133.42a9.423 9.423 0 109.419 9.427 9.422 9.422 0 00-9.419-9.427" transform="translate(-103.51 -87.722)"/><path id="path78" class="cls-1" d="M231.941 242.94a6.892 6.892 0 106.891 6.9 6.9 6.9 0 00-6.891-6.9" transform="translate(-148.896 -158.357)"/><path id="path80" class="cls-1" d="M93.606 106.385a10.189 10.189 0 01-6.583-17.976l-9.732-16.254a13.679 13.679 0 01-12.281 0l-9.732 16.254a10.256 10.256 0 11-2.837-1.7l9.8-16.371A13.766 13.766 0 0169.5 46.162v-6.391a10.2 10.2 0 113.309 0v6.391a13.764 13.764 0 017.254 24.175l9.8 16.371a10.2 10.2 0 113.742 19.677m-66.139-46.5c0-7.36 4.616-13.5 12.338-13.5 5.628 0 10.353 3 11.038 8.805h-4.4c-.43-3.387-3.387-5.123-6.636-5.123-5.525 0-7.829 4.868-7.829 9.814s2.3 9.814 7.829 9.814c4.616.075 7.14-2.705 7.215-7.069h-6.853V59.2h10.967v13.569h-2.887l-.685-3.029a9.285 9.285 0 01-7.754 3.643c-7.726 0-12.342-6.135-12.342-13.5M70.712 4.71a60.154 60.154 0 1060.152 60.156A60.155 60.155 0 0070.712 4.71" transform="translate(-10.56 -4.71)"/></g></g></svg>