<svg xmlns="http://www.w3.org/2000/svg" width="160" height="109.108"><defs><style>.cls-1{fill:#ef3741}.cls-2{fill:#231f20}.cls-3{fill:#010101}</style></defs><g id="Group_914" transform="translate(-849 -3389.349)"><path id="Path_14278" d="M25.068 338.269a1.351 1.351 0 01.37.97v18.7a1.487 1.487 0 01-.407 1.078 1.4 1.4 0 01-1.062.431 2.035 2.035 0 01-.661-.108 1.1 1.1 0 01-.509-.323l-12.116-15.77V358.1a1.314 1.314 0 01-1.263 1.35h-.084a1.269 1.269 0 01-.964-.387A1.341 1.341 0 018 358.1v-18.737a1.448 1.448 0 01.4-1.063 1.4 1.4 0 011.031-.407 1.886 1.886 0 01.71.138 1.221 1.221 0 01.523.384l12.076 15.8v-14.976a1.314 1.314 0 011.271-1.355h.089a1.265 1.265 0 01.968.385z" class="cls-1" transform="translate(841.006 3093.704)"/><path id="Path_14279" d="M132.132 357.046a1.424 1.424 0 01.407 1.017 1.3 1.3 0 01-.407 1 1.5 1.5 0 01-1.062.384h-10.721a1.473 1.473 0 01-1.479-1.467v-18.614a1.473 1.473 0 011.467-1.479h10.733a1.469 1.469 0 011.062.407 1.391 1.391 0 01.407 1.048 1.3 1.3 0 01-.407 1 1.5 1.5 0 01-1.062.384h-9.154v6.284h7.763a1.477 1.477 0 011.064.407 1.355 1.355 0 01.407 1.017 1.288 1.288 0 01-.407 1.017 1.55 1.55 0 01-1.064.37h-7.759v6.8h9.154a1.412 1.412 0 011.058.425z" class="cls-1" transform="translate(752.686 3093.702)"/><path id="Path_14280" d="M223.447 337.869a1.446 1.446 0 01.494 1.141 1.7 1.7 0 01-.094.523l-6.376 18.636a1.111 1.111 0 01-.509.663 1.831 1.831 0 01-.814.26 1.567 1.567 0 01-.832-.246 1.424 1.424 0 01-.586-.708l-4.803-11.238-4.775 11.244a1.5 1.5 0 01-2.238.677 1.172 1.172 0 01-.494-.647l-6.388-18.636a1.694 1.694 0 01-.094-.523 1.438 1.438 0 01.509-1.125 1.607 1.607 0 011.988-.185 1.2 1.2 0 01.523.694l5.206 15.434 4.475-10.967a1.5 1.5 0 012.773 0l4.335 10.967 5.175-15.432a1.139 1.139 0 01.523-.708 1.734 1.734 0 01.924-.246 1.6 1.6 0 011.078.422z" class="cls-1" transform="translate(691.295 3094.057)"/><path id="Path_14281" d="M345.1 357.881a10.118 10.118 0 01-3.3-2.048 1.627 1.627 0 01-.647-1.261 1.406 1.406 0 01.431-1 1.363 1.363 0 011.017-.445 1.281 1.281 0 01.893.338 8.545 8.545 0 002.543 1.68 7.772 7.772 0 002.972.539 5.777 5.777 0 003.279-.893 2.64 2.64 0 001.339-2.254 2.891 2.891 0 00-1.341-2.48 11.963 11.963 0 00-3.989-1.463 10.624 10.624 0 01-4.882-2.126 5.122 5.122 0 01-1.709-4.1 5.428 5.428 0 01.956-3.188 6.1 6.1 0 012.645-2.11 9.461 9.461 0 013.818-.738 10.513 10.513 0 013.6.61 7.621 7.621 0 012.742 1.627 1.749 1.749 0 01.708 1.324 1.379 1.379 0 01-.407.987 1.336 1.336 0 01-1 .429 1.017 1.017 0 01-.708-.246 6.408 6.408 0 00-2.224-1.341 7.431 7.431 0 00-2.712-.553 5.649 5.649 0 00-3.279.846 2.728 2.728 0 00-.761 3.776 2.765 2.765 0 00.761.761 11.48 11.48 0 003.619 1.357 19.108 19.108 0 013.928 1.221 5.566 5.566 0 012.356 1.971 5.921 5.921 0 01.832 3.3 5.289 5.289 0 01-1 3.192 6.59 6.59 0 01-2.728 2.156 9.189 9.189 0 01-3.788.771 11.527 11.527 0 01-3.964-.639z" class="cls-1" transform="translate(575.616 3094.946)"/><path id="Path_14282" d="M443.7 363.193a1.221 1.221 0 01.586 1.031 1.53 1.53 0 01-.385 1.125 1.288 1.288 0 01-.94.384 2.919 2.919 0 01-.832-.185 3.48 3.48 0 00-1.017-.216 3.129 3.129 0 00-1.863.663 4.846 4.846 0 00-1.479 1.817 5.741 5.741 0 00-.57 2.571v7.423a1.452 1.452 0 01-.407 1.048 1.406 1.406 0 01-1.064.431 1.391 1.391 0 01-1.048-.407 1.475 1.475 0 01-.407-1.064v-13.181a1.452 1.452 0 01.407-1.048 1.379 1.379 0 011.031-.431 1.424 1.424 0 011.064.431 1.452 1.452 0 01.407 1.048v1.57a5.836 5.836 0 012.034-2.441 5.452 5.452 0 013.082-.97 2.313 2.313 0 011.401.401z" class="cls-2" transform="translate(501.443 3073.864)"/><path id="Path_14283" d="M503.822 375.455a7.844 7.844 0 01-2.942 2.988 8.377 8.377 0 01-8.225 0 7.816 7.816 0 01-2.942-2.988 8.612 8.612 0 01-1.078-4.313 8.774 8.774 0 011.078-4.343 7.779 7.779 0 012.942-3.023 8.377 8.377 0 018.225 0 7.811 7.811 0 012.942 3.019 8.8 8.8 0 011.078 4.343 8.628 8.628 0 01-1.078 4.317zm-2.543-7.285a5.055 5.055 0 00-9.024 0 6.262 6.262 0 00-.7 2.972 6.1 6.1 0 00.694 2.927 5.074 5.074 0 009.024 0 6.1 6.1 0 00.694-2.927 6.26 6.26 0 00-.688-2.972z" class="cls-2" transform="translate(458.143 3073.938)"/><path id="Path_14284" d="M595.532 375.456a7.816 7.816 0 01-2.942 2.988 8.375 8.375 0 01-8.223 0 7.837 7.837 0 01-2.944-2.988 8.612 8.612 0 01-1.078-4.313 8.8 8.8 0 011.078-4.343 7.806 7.806 0 012.952-3.023 8.375 8.375 0 018.223 0 7.773 7.773 0 012.933 3.023 8.774 8.774 0 011.078 4.343 8.612 8.612 0 01-1.077 4.313zM593 368.171a5.055 5.055 0 00-9.024 0 6.232 6.232 0 00-.694 2.972 6.1 6.1 0 00.694 2.927 5.074 5.074 0 009.024 0 6.1 6.1 0 00.7-2.927 6.266 6.266 0 00-.7-2.972z" class="cls-2" transform="translate(385.089 3073.937)"/><path id="Path_14285" d="M700.923 369.9v8.223a1.474 1.474 0 01-.407 1.064 1.538 1.538 0 01-2.11-.024 1.453 1.453 0 01-.406-1.053v-8.184q0-4.036-3.387-4.036a4.4 4.4 0 00-2.173.539 3.905 3.905 0 00-1.509 1.463 3.967 3.967 0 00-.539 2.034v8.192a1.453 1.453 0 01-.407 1.048 1.538 1.538 0 01-2.11.024 1.456 1.456 0 01-.407-1.064V369.9a4.953 4.953 0 00-.771-2.911 2.915 2.915 0 00-2.557-1.094 4.133 4.133 0 00-3 1.155 3.825 3.825 0 00-1.186 2.848v8.223a1.452 1.452 0 01-.407 1.048 1.4 1.4 0 01-1.064.431 1.385 1.385 0 01-1.046-.407 1.457 1.457 0 01-.407-1.064v-13.187a1.453 1.453 0 01.407-1.048 1.379 1.379 0 011.031-.431 1.424 1.424 0 011.064.431 1.453 1.453 0 01.407 1.048v1.078a6.745 6.745 0 012.138-2.02 5.492 5.492 0 012.911-.814 4.722 4.722 0 014.958 3.387 6.536 6.536 0 012.25-2.342 5.9 5.9 0 013.336-1.054q5.391.003 5.391 6.723z" class="cls-2" transform="translate(308.077 3073.553)"/><path id="Path_14286" d="M316.263 486.844a27.721 27.721 0 01-21.108-9.734 1.528 1.528 0 012.319-1.992 24.682 24.682 0 0037.574 0 1.53 1.53 0 112.323 1.992 27.721 27.721 0 01-21.108 9.734z" class="cls-3" transform="translate(612.555 2984.813)"/><path id="Path_14287" d="M278.232 536.276a41.443 41.443 0 01-30.718-13.671 1.831 1.831 0 012.72-2.453 37.7 37.7 0 0056.013 0 1.831 1.831 0 112.718 2.454 41.441 41.441 0 01-30.733 13.67z" class="cls-3" transform="translate(650.588 2948.996)"/><path id="Path_14288" d="M241.822 584.7a54.387 54.387 0 01-40.022-17.5 2.034 2.034 0 012.984-2.756 50.428 50.428 0 0071.262 2.811q1.459-1.349 2.811-2.812a2.034 2.034 0 112.985 2.765 54.393 54.393 0 01-40.021 17.495z" class="cls-3" transform="translate(686.996 2913.75)"/><path id="Path_14289" d="M280.836 150.881a2.034 2.034 0 01-1.481-.641 50.427 50.427 0 00-71.278-2.266q-1.17 1.094-2.266 2.266a2.036 2.036 0 11-2.97-2.787 54.489 54.489 0 0177.025-2.441q1.263 1.184 2.441 2.441a2.034 2.034 0 01-1.481 3.428z" class="cls-3" transform="translate(686.237 3259.098)"/><path id="Path_14290" d="M308.3 211.511a1.831 1.831 0 01-1.347-.592 37.7 37.7 0 00-53.266-2.211q-1.155 1.062-2.219 2.219a1.831 1.831 0 11-2.738-2.431l.045-.049a41.33 41.33 0 0158.4-2.48q1.29 1.186 2.48 2.48a1.831 1.831 0 01-1.347 3.072z" class="cls-3" transform="translate(649.609 3207.461)"/><path id="Path_14291" d="M337.188 273.984a1.524 1.524 0 01-1.145-.517 24.682 24.682 0 00-37.077 0 1.526 1.526 0 01-2.284-2.018 27.734 27.734 0 0141.656 0 1.526 1.526 0 01-1.143 2.535z" class="cls-3" transform="translate(611.315 3154.128)"/></g></svg>