<svg xmlns="http://www.w3.org/2000/svg" width="34.864" height="34.757"><defs><style>.prefix__cls-1{fill:none;stroke:#12284c;stroke-miterlimit:10;stroke-width:2px}.prefix__cls-2{fill:#f5333f}</style></defs><g id="prefix__Icons" transform="translate(1 1)"><path id="prefix__Path_14071" d="M369.2 485.169a6.245 6.245 0 116.246-6.245 6.252 6.252 0 01-6.246 6.245z" class="prefix__cls-1" data-name="Path 14071" transform="translate(-362.96 -462.58)"/><path id="prefix__Path_14072" d="M588.795 376.289a6.245 6.245 0 116.246-6.245 6.252 6.252 0 01-6.246 6.245z" class="prefix__cls-1" data-name="Path 14072" transform="translate(-562.181 -363.8)"/><path id="prefix__Path_14073" d="M588.845 594.779a6.245 6.245 0 116.246-6.245 6.252 6.252 0 01-6.246 6.245z" class="prefix__cls-1" data-name="Path 14073" transform="translate(-562.226 -562.023)"/><path id="prefix__Line_119" d="M0 0l9.303 4.653" class="prefix__cls-1" data-name="Line 119" transform="translate(11.834 19.118)"/><path id="prefix__Line_120" d="M0 4.743L9.258 0" class="prefix__cls-1" data-name="Line 120" transform="translate(11.794 8.792)"/><path id="prefix__Path_14074" d="M398.736 511.672a3.226 3.226 0 113.226-3.226 3.23 3.23 0 01-3.226 3.226z" class="prefix__cls-2" data-name="Path 14074" transform="translate(-392.491 -492.102)"/><path id="prefix__Path_14075" d="M618.316 402.792a3.226 3.226 0 113.226-3.226 3.23 3.23 0 01-3.226 3.226z" class="prefix__cls-2" data-name="Path 14075" transform="translate(-591.702 -393.322)"/><path id="prefix__Path_14076" d="M618.366 621.282a3.226 3.226 0 113.226-3.226 3.23 3.23 0 01-3.226 3.226z" class="prefix__cls-2" data-name="Path 14076" transform="translate(-591.748 -591.544)"/></g></svg>