<svg xmlns="http://www.w3.org/2000/svg" width="110.553" height="112.5"><defs><style>.cls-1{fill:#ef3741}.cls-2{fill:#010101}</style></defs><g id="Group_916" transform="translate(-242 -3743)"><g id="Group_598" transform="translate(242 3785.101)"><path id="Path_14260" d="M133.1 377.934a1.244 1.244 0 01.642-1.056 1.175 1.175 0 01.7-.207 1.391 1.391 0 011.015.456 6.421 6.421 0 002.009 1.574 5.74 5.74 0 002.568.518 4.452 4.452 0 002.071-.538 1.741 1.741 0 00.891-1.657 1.8 1.8 0 00-.911-1.615 10.362 10.362 0 00-2.692-1.015 20.994 20.994 0 01-2.879-.973 5.067 5.067 0 01-1.947-1.491 4.381 4.381 0 010-5.012 5.107 5.107 0 012.113-1.636 6.945 6.945 0 012.879-.58 8.249 8.249 0 012.962.559 5.6 5.6 0 012.4 1.7 1.35 1.35 0 01.373.891 1.315 1.315 0 01-.5.953 1.085 1.085 0 01-.766.269 1.142 1.142 0 01-.891-.373 4.414 4.414 0 00-1.595-1.139 5.232 5.232 0 00-2.092-.393 4.06 4.06 0 00-2.009.476 1.932 1.932 0 00.124 3.252 11.994 11.994 0 002.817 1.015 17.328 17.328 0 012.734.932 4.822 4.822 0 011.823 1.47 4.112 4.112 0 01.746 2.568 3.944 3.944 0 01-.828 2.527 5.336 5.336 0 01-2.2 1.636 7.443 7.443 0 01-2.879.58 9.489 9.489 0 01-3.624-.683 6.829 6.829 0 01-2.817-2.175 1.819 1.819 0 01-.237-.833z" transform="translate(-133.1 -358.363)"/><path id="Path_14261" d="M224.145 347.293v8.284a1.5 1.5 0 01-.414 1.056 1.42 1.42 0 01-1.077.435 1.36 1.36 0 01-1.035-.435 1.5 1.5 0 01-.414-1.056v-8.284q0-4.039-3.417-4.039a4.256 4.256 0 00-3.044 1.16 3.815 3.815 0 00-1.2 2.879v8.284a1.5 1.5 0 01-.414 1.056 1.42 1.42 0 01-1.077.435 1.436 1.436 0 01-1.056-.414 1.471 1.471 0 01-.393-1.077v-19.986a1.5 1.5 0 01.414-1.056 1.36 1.36 0 011.036-.435 1.452 1.452 0 011.077.435 1.5 1.5 0 01.414 1.056v7.849a6.747 6.747 0 012.175-2.071 5.712 5.712 0 012.982-.849c3.62 0 5.443 2.258 5.443 6.773z" transform="translate(-194.549 -334.1)"/><path id="Path_14262" d="M307.822 365.259a1.5 1.5 0 01.414 1.1v13.483a1.5 1.5 0 01-.414 1.056 1.42 1.42 0 01-1.077.435 1.435 1.435 0 01-1.056-.414 1.47 1.47 0 01-.394-1.077v-.808a6.477 6.477 0 01-2.2 1.843 6.285 6.285 0 01-3 .766 7 7 0 01-3.831-1.077 7.49 7.49 0 01-2.692-3.024 10.3 10.3 0 010-8.74 7.49 7.49 0 012.692-3.024 6.818 6.818 0 013.749-1.077 6.991 6.991 0 013.065.684 6.449 6.449 0 012.257 1.74v-.746a1.5 1.5 0 01.393-1.077 1.375 1.375 0 011.056-.435 1.357 1.357 0 011.038.392zm-4.8 12.9a5.016 5.016 0 001.76-2.05 6.741 6.741 0 00.642-2.941 6.434 6.434 0 00-.642-2.92 5.215 5.215 0 00-1.76-2.071 4.811 4.811 0 00-5.178-.021 5.016 5.016 0 00-1.76 2.05 6.741 6.741 0 00-.642 2.941 6.461 6.461 0 00.642 2.941 5.016 5.016 0 001.76 2.05 4.574 4.574 0 002.589.746 4.448 4.448 0 002.584-.722z" transform="translate(-259.567 -358.362)"/><path id="Path_14263" d="M408.224 359.8a1.284 1.284 0 01.186.663 1.123 1.123 0 01-.414.953 1.643 1.643 0 01-1.015.311 1.863 1.863 0 01-.994-.249 3.826 3.826 0 01-1.512-1.7 8.056 8.056 0 01-.58-3.479 2.766 2.766 0 00-.932-2.3 3.76 3.76 0 00-2.423-.746h-6.275v6.979a1.585 1.585 0 01-.373 1.077 1.269 1.269 0 01-.953.414 1.8 1.8 0 01-1.222-.435 1.375 1.375 0 01-.518-1.056v-18.741a1.485 1.485 0 011.492-1.491h8.719a5.82 5.82 0 013.065.828 6.154 6.154 0 012.237 2.258 6.331 6.331 0 01.828 3.252 6.326 6.326 0 01-3.314 5.509 4.64 4.64 0 011.823 1.636 4.978 4.978 0 01.725 2.444 17.394 17.394 0 00.269 2.4 1.352 1.352 0 00.683.911 2.1 2.1 0 01.498.562zm-5.426-9.734a4.1 4.1 0 001.139-1.512 5.034 5.034 0 00.435-2.133 3.711 3.711 0 00-.911-2.527 2.857 2.857 0 00-2.216-1.036h-6.979v7.829h7.083a2.64 2.64 0 001.451-.622z" class="cls-1" transform="translate(-337.746 -338.778)"/><path id="Path_14264" d="M506.279 359.4a1.442 1.442 0 01.414 1.015 1.373 1.373 0 01-.414 1.015 1.47 1.47 0 01-1.077.393h-10.811a1.485 1.485 0 01-1.491-1.491v-18.741a1.485 1.485 0 011.491-1.491H505.2a1.6 1.6 0 011.077.393 1.435 1.435 0 01.414 1.056 1.373 1.373 0 01-.414 1.015 1.47 1.47 0 01-1.077.394h-9.216v6.342h7.829a1.6 1.6 0 011.077.393 1.374 1.374 0 01.414 1.015 1.31 1.31 0 01-.414 1.015 1.549 1.549 0 01-1.077.373h-7.829v6.855h9.216a1.479 1.479 0 011.079.449z" class="cls-1" transform="translate(-418.383 -338.857)"/><path id="Path_14265" d="M592.625 341.627a8.947 8.947 0 013.127 3.935 14.84 14.84 0 010 11 9.005 9.005 0 01-3.127 3.914 8.6 8.6 0 01-4.991 1.45h-7.642a1.485 1.485 0 01-1.491-1.491v-18.746a1.485 1.485 0 011.491-1.491h7.642a8.337 8.337 0 014.991 1.429zm-.559 15.16a11.216 11.216 0 00-.021-11.494 5.412 5.412 0 00-4.743-2.257h-5.737v16.009h5.735a5.426 5.426 0 004.766-2.258z" class="cls-1" transform="translate(-486.255 -338.934)"/></g><g id="Group_600" transform="translate(255.13 3743)"><path id="Path_14266" d="M482 482.89l-6.234-6.234a1.663 1.663 0 00-2.34 0 1.644 1.644 0 000 2.34l6.234 6.234a1.612 1.612 0 001.16.476 1.665 1.665 0 001.16-.476 1.644 1.644 0 00.02-2.34z" class="cls-2" transform="translate(-415.685 -404.149)"/><g id="Group_599"><path id="Path_14267" d="M367.6 145.8a8.7 8.7 0 10-8.7-8.7 8.711 8.711 0 008.7 8.7zm0-14.1a5.405 5.405 0 11-5.405 5.405 5.409 5.409 0 015.405-5.412z" class="cls-2" transform="translate(-325.266 -128.4)"/><path id="Path_14268" d="M367.6 587.6a8.7 8.7 0 108.7 8.7 8.711 8.711 0 00-8.7-8.7zm0 14.1a5.405 5.405 0 115.4-5.4 5.409 5.409 0 01-5.4 5.4z" class="cls-2" transform="translate(-325.266 -492.497)"/><path id="Path_14269" d="M205.2 213a8.7 8.7 0 10-6.151-2.547A8.665 8.665 0 00205.2 213zm-3.811-12.509a5.389 5.389 0 017.621 7.621 5.389 5.389 0 01-7.621-7.621z" class="cls-2" transform="translate(-196.5 -181.683)"/><path id="Path_14270" d="M530 520.4a8.7 8.7 0 100 17.4 8.553 8.553 0 006.13-2.568A8.678 8.678 0 00530 520.4zm3.811 12.509a5.4 5.4 0 111.574-3.811 5.375 5.375 0 01-1.576 3.811z" class="cls-2" transform="translate(-454.032 -439.214)"/><path id="Path_14271" d="M530 213a8.7 8.7 0 10-6.151-2.547A8.665 8.665 0 00530 213zm-3.831-12.509a5.385 5.385 0 110 7.621 5.4 5.4 0 010-7.621z" class="cls-2" transform="translate(-454.032 -181.683)"/><path id="Path_14272" d="M205.2 520.4a8.7 8.7 0 106.151 2.547 8.665 8.665 0 00-6.151-2.547zm3.831 12.509a5.4 5.4 0 01-7.622 0 5.385 5.385 0 117.622 0z" class="cls-2" transform="translate(-196.5 -439.214)"/><path id="Path_14273" d="M392.9 232.057v8.8a1.657 1.657 0 003.314 0v-8.8a1.657 1.657 0 00-3.314 0z" class="cls-2" transform="translate(-352.224 -209.275)"/><path id="Path_14274" d="M396.214 521.559v-8.8a1.657 1.657 0 00-3.314 0v8.8a1.657 1.657 0 003.314 0z" class="cls-2" transform="translate(-352.224 -431.841)"/><path id="Path_14275" d="M279.146 280.6l6.234 6.234a1.613 1.613 0 001.16.476 1.646 1.646 0 001.16-2.817l-6.234-6.234a1.662 1.662 0 00-2.34 0 1.682 1.682 0 00.02 2.341z" class="cls-2" transform="translate(-261.646 -246.839)"/><path id="Path_14276" d="M478.737 287.307a1.665 1.665 0 001.16-.476l6.234-6.234a1.655 1.655 0 00-2.34-2.34l-6.234 6.234a1.662 1.662 0 000 2.34 1.713 1.713 0 001.18.476z" class="cls-2" transform="translate(-418.966 -246.839)"/></g><path id="Path_14277" d="M281.29 476.757l-6.234 6.234a1.662 1.662 0 000 2.34 1.612 1.612 0 001.16.476 1.665 1.665 0 001.16-.476l6.234-6.234a1.662 1.662 0 000-2.34 1.637 1.637 0 00-2.32 0z" class="cls-2" transform="translate(-258.405 -404.228)"/></g></g></svg>